# xmcd CD database file
#
# Track frame offsets:
#	150
#	18314
#	42906
#	74576
#	89663
#	108256
#	125862
#	140391
#	153937
#	168455
#	185333
#	198024
#	213788
#	235651
#
# Disc length: 3418 seconds
#
# Revision: 0
# Processed by: cddbd v1.5.2PL0 Copyright (c) Steve Scherf et al.
# Submitted via: CDex 1.51
#
DISCID=bd0d580e
DTITLE=Caroll Vanwelden - Dont explain - Songs of the 40s
DYEAR=2013
DGENRE=Jazz
TTITLE0=All or nothing at all
TTITLE1=Dont explain
TTITLE2=Black coffee
TTITLE3=Frim fram sauce
TTITLE4=God bless the child
TTITLE5=Cest si bon
TTITLE6=Baby its cold outside
TTITLE7=Lush life
TTITLE8=Perdido
TTITLE9=The surrey with the fringe on top
TTITLE10=Strange fruit
TTITLE11=No moon at all
TTITLE12=Speak low
TTITLE13=Caroll Vanwelden - You dont know what love is
EXTD=YEAR: 2013
EXTT0=
EXTT1=
EXTT2=
EXTT3=
EXTT4=
EXTT5=
EXTT6=
EXTT7=
EXTT8=
EXTT9=
EXTT10=
EXTT11=
EXTT12=
EXTT13=
PLAYORDER=
